<svg width="516" height="118" viewBox="0 0 516 118" fill="none" xmlns="http://www.w3.org/2000/svg">
<path d="M59.0017 118.001C91.5874 118.001 118.003 91.5855 118.003 59.0005C118.003 26.4154 91.5874 0 59.0017 0C26.4159 0 0 26.4154 0 59.0005C0 91.5855 26.4159 118.001 59.0017 118.001Z" fill="#0C0C0C"/>
<path d="M73.8843 70.8735L87.2895 94.6677C85.5915 94.6677 84.0723 94.6677 82.553 94.6677C82.1955 94.6677 81.8381 94.1133 81.6147 93.7437L72.3204 77.2494C71.2926 75.4475 70.2649 73.6456 69.2819 71.7975C69.1894 71.4924 68.9944 71.2316 68.7322 71.0621C68.4699 70.8927 68.1577 70.8258 67.852 70.8735H59.4514L62.2218 66.5305C62.2218 66.5305 62.758 66.2994 63.0261 66.2994H66.1093C65.6238 65.2613 65.0714 64.258 64.456 63.2963C64.2046 63.0217 64.0645 62.6579 64.0645 62.2798C64.0645 61.9017 64.2046 61.5379 64.456 61.2634C65.2156 60.2469 65.7965 59.1381 66.5561 57.9368C67.7626 60.1083 69.0138 62.095 69.9968 64.1741C70.2482 64.9048 70.7385 65.5217 71.383 65.9182C72.0276 66.3147 72.7859 66.4659 73.5268 66.3456C77.459 66.3456 81.3912 66.3456 85.2787 66.3456C87.2002 66.3456 87.3789 66.3456 88.0491 64.1279L64.9028 50.2672L63.2942 53.1779L41.0416 93.9747C40.9357 94.2292 40.7508 94.44 40.5162 94.5739C40.2815 94.7077 40.0105 94.757 39.7457 94.7139C38.4052 94.7139 37.0647 94.7139 35.2773 94.7139L61.1047 48.2343L37.1988 33.9116L46.493 16.9553L50.4699 19.2654L46.0015 27.7204C45.3312 28.9217 44.661 30.0768 44.0801 31.278C44.0801 31.278 44.0801 32.0635 44.0801 32.1559L47.7889 34.3736L52.4807 25.8723L56.4129 28.1363L51.9445 36.7299L55.6979 38.9476L93.59 61.633C94.3496 62.095 94.5283 62.4184 94.0368 63.2501C92.741 65.514 91.4898 67.8703 90.2387 70.1804C90.1283 70.4343 89.9443 70.6463 89.712 70.7871C89.4798 70.9278 89.211 70.9903 88.9428 70.9659H73.8843V70.8735Z" fill="#A09DFF"/>
<path d="M136 75.4631C136.982 73.5149 137.998 71.4835 139.047 69.3688C140.113 67.2541 141.129 65.231 142.094 63.2994L148.189 51.1108C149.238 49.0128 150.212 47.0729 151.111 45.2912C152.01 43.5095 152.918 41.6946 153.833 39.8463H169.469C169.619 41.7112 169.76 43.5179 169.893 45.2662C170.043 46.998 170.201 48.9545 170.368 51.1358L171.367 63.5742C171.517 65.4391 171.675 67.4206 171.842 69.5187C172.008 71.6001 172.166 73.5815 172.316 75.4631H160.277C160.261 73.7814 160.244 72.058 160.227 70.2929C160.227 68.5279 160.227 66.8378 160.227 65.2227L160.128 49.9868H159.328L153.184 65.1228C152.518 66.7879 151.819 68.5113 151.086 70.2929C150.37 72.0746 149.671 73.798 148.988 75.4631H136ZM147.989 69.6685L151.236 60.6769H164.823L164.124 69.6685H147.989ZM175.26 75.4631C175.659 73.6148 176.042 71.8248 176.409 70.0931C176.775 68.3614 177.208 66.3383 177.708 64.0238L180.305 51.7852C180.805 49.4041 181.246 47.306 181.629 45.491C182.029 43.6761 182.436 41.7945 182.853 39.8463H193.493C194.226 41.7112 194.908 43.4679 195.541 45.1164C196.174 46.7482 196.79 48.3384 197.389 49.8869L199.787 56.0312H200.636L201.535 51.7852C202.035 49.4207 202.476 47.331 202.859 45.516C203.259 43.701 203.667 41.8111 204.083 39.8463H215.523C215.107 41.8111 214.699 43.701 214.299 45.516C213.916 47.331 213.475 49.4207 212.975 51.7852L210.377 63.9738C209.878 66.3216 209.445 68.3531 209.078 70.0682C208.712 71.7832 208.329 73.5815 207.929 75.4631H197.589C196.923 73.8313 196.257 72.2161 195.591 70.6176C194.941 69.0191 194.242 67.3041 193.493 65.4724L190.945 59.2782H190.146L189.147 63.9738C188.647 66.3216 188.214 68.3531 187.848 70.0682C187.482 71.7832 187.099 73.5815 186.699 75.4631H175.26ZM220.374 75.4631C220.774 73.6148 221.157 71.8248 221.523 70.0931C221.889 68.3614 222.322 66.33 222.822 63.9988L224.995 53.7833C225.511 51.3855 225.958 49.2792 226.343 47.4642C226.726 45.6326 227.126 43.7593 227.542 41.8444L230.315 50.4364H225.07C223.321 50.4364 221.773 50.4364 220.424 50.4364C219.092 50.4364 217.826 50.4364 216.627 50.4364L218.825 39.8463H249.347L247.099 50.4364C245.9 50.4364 244.635 50.4364 243.303 50.4364C241.987 50.4364 240.455 50.4364 238.707 50.4364H233.462L239.781 41.8444C239.365 43.7593 238.965 45.6326 238.582 47.4642C238.199 49.2792 237.749 51.3855 237.233 53.7833L235.06 63.9988C234.561 66.33 234.128 68.3614 233.761 70.0931C233.395 71.8248 233.012 73.6148 232.613 75.4631H220.374ZM245.317 75.4631C245.717 73.6148 246.1 71.8248 246.466 70.0931C246.833 68.3614 247.266 66.33 247.765 63.9988L250.363 51.7852C250.879 49.4041 251.328 47.306 251.711 45.491C252.094 43.6761 252.494 41.7945 252.91 39.8463H265.449C265.032 41.7778 264.624 43.6677 264.225 45.516C263.842 47.3476 263.401 49.4374 262.901 51.7852L260.303 63.9988C259.804 66.33 259.371 68.3614 259.005 70.0931C258.638 71.8248 258.255 73.6148 257.856 75.4631H245.317ZM279.885 75.2159C278.087 75.2159 276.255 75.0826 274.39 74.8162C272.525 74.5498 270.819 74.1918 269.27 73.7422C267.722 73.276 266.531 72.7682 265.698 72.2187L268.546 62.1281C269.611 62.8607 270.76 63.5018 271.993 64.0513C273.225 64.5841 274.465 65.0004 275.714 65.3001C276.98 65.5832 278.187 65.7247 279.336 65.7247C280.085 65.7247 280.676 65.6581 281.109 65.5249C281.559 65.3917 281.892 65.2002 282.108 64.9504C282.341 64.684 282.499 64.3593 282.583 63.9763C282.683 63.5101 282.541 63.0688 282.158 62.6526C281.792 62.2196 281.217 61.8034 280.435 61.4037C279.669 60.9874 278.736 60.5628 277.637 60.1299C275.789 59.3973 274.215 58.5314 272.917 57.5323C271.635 56.5166 270.735 55.2345 270.219 53.6859C269.72 52.1374 269.711 50.1892 270.194 47.8414C270.644 45.6601 271.41 43.8451 272.492 42.3964C273.591 40.9311 275.098 39.8321 277.013 39.0995C278.928 38.3668 281.35 38.0005 284.281 38.0005C285.58 38.0005 286.895 38.0838 288.227 38.2503C289.576 38.4168 290.883 38.6499 292.149 38.9496C293.431 39.2327 294.613 39.5741 295.695 39.9737C296.778 40.3567 297.702 40.7813 298.468 41.2475L295.521 50.9385C294.538 50.2058 293.423 49.5981 292.174 49.1152C290.942 48.6323 289.759 48.2743 288.627 48.0412C287.511 47.8081 286.629 47.6915 285.98 47.6915C285.413 47.6915 284.906 47.7498 284.456 47.8663C284.023 47.9829 283.665 48.1661 283.382 48.4158C283.099 48.6656 282.916 48.9903 282.832 49.3899C282.749 49.8062 282.832 50.2225 283.082 50.6387C283.332 51.055 283.765 51.4796 284.381 51.9126C285.014 52.3288 285.863 52.7535 286.929 53.1864C289.393 54.1688 291.3 55.2095 292.648 56.3085C293.997 57.4075 294.871 58.6646 295.271 60.08C295.671 61.4787 295.671 63.1271 295.271 65.0254C294.755 67.4897 293.905 69.4712 292.723 70.9698C291.541 72.4518 289.909 73.5341 287.828 74.2168C285.746 74.8828 283.099 75.2159 279.885 75.2159ZM316.112 75.2159C312.898 75.2159 310.118 74.6747 307.77 73.5924C305.422 72.4934 303.532 70.9781 302.1 69.0466C300.685 67.1151 299.761 64.8922 299.328 62.3778C298.895 59.8469 298.978 57.1494 299.577 54.2854C300.31 50.7387 301.559 47.7581 303.324 45.3437C305.089 42.9293 307.412 41.106 310.292 39.8738C313.19 38.6249 316.695 38.0005 320.808 38.0005C321.84 38.0005 322.922 38.0671 324.055 38.2003C325.187 38.3169 326.311 38.5 327.426 38.7498C328.559 38.9829 329.641 39.2743 330.673 39.624C331.706 39.9737 332.647 40.365 333.496 40.7979L330.299 51.7877C329.167 51.055 328.068 50.4223 327.002 49.8895C325.953 49.3566 324.904 48.9487 323.855 48.6656C322.806 48.3825 321.74 48.241 320.658 48.241C319.392 48.241 318.168 48.4741 316.986 48.9403C315.821 49.4066 314.788 50.1975 313.889 51.3131C313.007 52.4288 312.366 53.9523 311.966 55.8839C311.733 57.0161 311.666 58.1401 311.766 59.2557C311.883 60.3714 312.199 61.3871 312.715 62.3029C313.231 63.2187 313.972 63.9514 314.938 64.5008C315.921 65.0503 317.144 65.3251 318.61 65.3251C319.259 65.3251 319.958 65.2585 320.708 65.1253C321.457 64.9754 322.24 64.7673 323.056 64.5008C323.888 64.2178 324.737 63.8764 325.603 63.4768C326.486 63.0605 327.385 62.5776 328.301 62.0281L326.402 73.5674C325.72 73.8338 324.945 74.0753 324.08 74.2917C323.23 74.4915 322.34 74.6581 321.407 74.7913C320.491 74.9411 319.575 75.0494 318.66 75.116C317.76 75.1826 316.911 75.2159 316.112 75.2159ZM351.11 74.4166C351.493 72.585 351.868 70.8033 352.234 69.0716C352.617 67.3232 353.058 65.2751 353.558 62.9273L356.156 50.7387C356.655 48.3908 357.096 46.3094 357.479 44.4945C357.879 42.6795 358.287 40.7813 358.703 38.7998H371.042C370.625 40.7646 370.217 42.6545 369.818 44.4695C369.435 46.2845 368.994 48.3742 368.494 50.7387L365.896 62.9523C365.397 65.2834 364.964 67.3149 364.598 69.0466C364.231 70.7617 363.848 72.5517 363.449 74.4166H351.11ZM330.481 74.4166C330.88 72.535 331.263 70.7367 331.63 69.0216C331.996 67.3066 332.429 65.2751 332.928 62.9273L335.526 50.7387C336.025 48.3908 336.467 46.3094 336.85 44.4945C337.249 42.6795 337.657 40.7813 338.074 38.7998H350.411C349.995 40.7313 349.587 42.6212 349.187 44.4695C348.804 46.3011 348.363 48.3908 347.863 50.7387L345.266 62.9273C344.766 65.2918 344.333 67.3315 343.967 69.0466C343.601 70.7617 343.218 72.5517 342.818 74.4166H330.481ZM342.518 61.6285L344.666 51.5379H359.153L357.005 61.6285H342.518ZM388.376 75.2159C384.862 75.2159 381.882 74.6497 379.434 73.5174C376.986 72.3685 375.055 70.8116 373.639 68.8468C372.224 66.8653 371.308 64.6257 370.892 62.1281C370.492 59.6137 370.575 56.9995 371.142 54.2854C371.841 50.9551 373.056 48.0745 374.788 45.6434C376.52 43.1957 378.751 41.3141 381.482 39.9987C384.229 38.6666 387.46 38.0005 391.173 38.0005C394.553 38.0005 397.459 38.55 399.89 39.649C402.338 40.748 404.294 42.2549 405.759 44.1698C407.225 46.0847 408.182 48.2909 408.632 50.7886C409.081 53.2696 409.006 55.9005 408.407 58.6813C407.708 61.9449 406.492 64.8172 404.76 67.2982C403.029 69.7793 400.789 71.7191 398.042 73.1178C395.311 74.5165 392.089 75.2159 388.376 75.2159ZM388.575 65.3251C389.458 65.3251 390.282 65.1502 391.048 64.8006C391.831 64.4342 392.53 63.9097 393.146 63.227C393.779 62.5443 394.32 61.7201 394.77 60.7543C395.236 59.7719 395.602 58.6646 395.869 57.4324C396.135 56.2169 396.227 55.043 396.143 53.9107C396.077 52.7784 395.844 51.7627 395.444 50.8635C395.044 49.9477 394.478 49.2234 393.746 48.6906C393.013 48.1577 392.105 47.8913 391.023 47.8913C390.091 47.8913 389.225 48.0828 388.426 48.4658C387.626 48.8488 386.91 49.3899 386.278 50.0893C385.645 50.7886 385.095 51.6212 384.629 52.5869C384.179 53.5527 383.83 54.6184 383.58 55.784C383.314 57.0494 383.23 58.2567 383.33 59.4056C383.43 60.5379 383.697 61.5536 384.13 62.4527C384.579 63.3353 385.179 64.0346 385.928 64.5508C386.677 65.067 387.56 65.3251 388.575 65.3251ZM428.866 75.2159C425.352 75.2159 422.372 74.6497 419.924 73.5174C417.476 72.3685 415.545 70.8116 414.129 68.8468C412.714 66.8653 411.798 64.6257 411.382 62.1281C410.982 59.6137 411.066 56.9995 411.632 54.2854C412.331 50.9551 413.547 48.0745 415.278 45.6434C417.01 43.1957 419.241 41.3141 421.972 39.9987C424.719 38.6666 427.95 38.0005 431.663 38.0005C435.043 38.0005 437.949 38.55 440.38 39.649C442.828 40.748 444.784 42.2549 446.249 44.1698C447.715 46.0847 448.672 48.2909 449.122 50.7886C449.571 53.2696 449.496 55.9005 448.897 58.6813C448.198 61.9449 446.982 64.8172 445.25 67.2982C443.519 69.7793 441.279 71.7191 438.532 73.1178C435.801 74.5165 432.579 75.2159 428.866 75.2159ZM429.065 65.3251C429.948 65.3251 430.772 65.1502 431.538 64.8006C432.321 64.4342 433.02 63.9097 433.636 63.227C434.269 62.5443 434.81 61.7201 435.26 60.7543C435.726 59.7719 436.092 58.6646 436.359 57.4324C436.625 56.2169 436.717 55.043 436.633 53.9107C436.567 52.7784 436.334 51.7627 435.934 50.8635C435.534 49.9477 434.968 49.2234 434.236 48.6906C433.503 48.1577 432.596 47.8913 431.513 47.8913C430.581 47.8913 429.715 48.0828 428.916 48.4658C428.116 48.8488 427.4 49.3899 426.768 50.0893C426.135 50.7886 425.585 51.6212 425.119 52.5869C424.67 53.5527 424.32 54.6184 424.07 55.784C423.804 57.0494 423.72 58.2567 423.82 59.4056C423.92 60.5379 424.187 61.5536 424.62 62.4527C425.069 63.3353 425.669 64.0346 426.418 64.5508C427.167 65.067 428.05 65.3251 429.065 65.3251ZM448.975 74.4166C449.374 72.5517 449.757 70.7617 450.124 69.0466C450.49 67.3149 450.923 65.2834 451.422 62.9523L454.02 50.7387C454.536 48.3575 454.986 46.2595 455.369 44.4445C455.752 42.6295 456.151 40.748 456.568 38.7998H468.906C468.49 40.7813 468.082 42.6795 467.682 44.4945C467.299 46.3094 466.858 48.3908 466.358 50.7387L464.186 60.9542C463.703 63.2354 463.27 65.2501 462.887 66.9985C462.52 68.7302 462.137 70.5369 461.738 72.4185L459.465 63.8265H466.908C468.423 63.8265 469.755 63.8265 470.904 63.8265C472.07 63.8265 473.152 63.8265 474.151 63.8265C475.15 63.8265 476.166 63.8265 477.198 63.8265L474.951 74.4166H448.975Z" fill="#0C0C0C"/>
<path d="M452.965 86.9042C453.249 86.8608 453.471 86.7205 453.63 86.4832C453.737 86.3346 453.927 86.1387 454.2 85.8955C454.283 85.834 454.365 85.7724 454.448 85.7109C454.531 85.6494 454.627 85.5871 454.739 85.524C454.85 85.461 454.947 85.3987 455.029 85.3372C455.112 85.2757 455.194 85.2141 455.277 85.1526C455.991 84.5717 456.603 83.9674 457.114 83.3399C457.626 82.7409 458.211 82.1667 458.869 81.6173C459.218 81.1699 459.568 80.7511 459.919 80.3607C460.298 79.9404 460.663 79.5351 461.015 79.1447C461.692 78.4227 462.349 77.5729 462.984 76.5955C463.862 75.863 464.679 75.0764 465.436 74.2357C465.96 73.865 466.386 73.5137 466.712 73.1819C467.038 72.8502 467.491 72.4974 468.073 72.1237C468.34 71.7664 468.634 71.3791 468.956 70.9617C469.278 70.5443 469.659 70.1811 470.101 69.8719C470.56 69.3615 471.042 68.993 471.545 68.7664C472.048 68.5398 472.53 68.1713 472.989 67.6609C473.822 67.1596 474.588 67.048 475.29 67.3261C475.991 67.6042 476.553 67.9611 476.976 68.3968C477.203 68.8999 477.574 69.4242 478.089 69.9695C478.15 70.0521 478.212 70.1348 478.273 70.2174C478.335 70.3 478.396 70.3684 478.456 70.4224C478.576 70.5306 478.644 70.7416 478.66 71.0555C478.695 71.7118 478.643 72.3726 478.506 73.0378C478.437 73.3561 478.368 73.6745 478.299 73.9928C478.258 74.3097 478.217 74.6265 478.177 74.9434C478.141 75.3458 478.119 75.7475 478.111 76.1485C478.102 76.5209 478.093 76.9076 478.086 77.3086C478.096 78.052 478.009 78.8434 477.824 79.6828C478.161 80.1229 478.458 80.5938 478.713 81.0955C478.969 81.6257 479.263 82.0396 479.593 82.337C479.791 82.2981 480.036 82.0564 480.328 81.612C480.464 81.4904 480.602 81.3831 480.74 81.29C480.905 81.1669 481.085 81.0431 481.279 80.9185C481.666 80.6694 481.982 80.4097 482.225 80.1395C482.441 79.8993 482.644 79.6741 482.833 79.4639C483.023 79.2537 483.213 79.0578 483.404 78.8762C483.812 78.4829 484.177 78.0633 484.497 77.6174C484.686 77.4072 484.876 77.2113 485.067 77.0297C485.256 76.8195 485.446 76.6236 485.637 76.442C485.828 76.2603 486.018 76.0787 486.209 75.897C486.427 75.6854 486.645 75.4737 486.863 75.2621C487.079 75.0219 487.281 74.7824 487.469 74.5437C487.655 74.2765 487.842 74.0235 488.03 73.7848C488.218 73.5461 488.406 73.3074 488.594 73.0686C488.78 72.8014 488.981 72.5477 489.198 72.3075C489.384 72.0403 489.561 71.8736 489.729 71.8076C489.925 71.7116 490.072 71.5179 490.171 71.2266C490.589 71.0045 490.958 70.6705 491.278 70.2246C491.571 69.8087 491.998 69.5003 492.56 69.2993C493.127 69.2124 493.498 69.193 493.673 69.2411C493.847 69.2892 494.114 69.4756 494.474 69.8001C494.77 69.9849 494.999 70.2591 495.161 70.6225C495.323 70.986 495.552 71.2602 495.848 71.445C496.415 72.4454 496.847 73.0523 497.145 73.2656C497.368 73.7117 497.435 74.166 497.345 74.6286L497.031 76.0183C497.02 76.3622 497.007 76.649 496.99 76.8788C496.972 77.08 496.952 77.2385 496.929 77.3541C496.906 77.4697 496.884 77.5853 496.861 77.701C496.839 77.8166 496.817 77.9465 496.796 78.0906C496.558 80.1059 496.146 82.073 495.559 83.9921C495.608 84.3901 495.744 84.7978 495.966 85.2154C496.155 85.5489 496.239 86.0452 496.216 86.7045C496.561 86.7437 496.889 86.7265 497.2 86.653C497.511 86.5796 497.779 86.5083 498.005 86.4394C499.178 85.8917 500.286 85.2043 501.33 84.3772C502.042 83.7678 502.784 83.1711 503.554 82.5872C504.352 81.9733 505.093 81.3766 505.778 80.7972C506.025 80.5841 506.242 80.3581 506.43 80.1194C506.617 79.8807 506.834 79.6548 507.081 79.4416C507.628 78.9553 508.165 78.5553 508.692 78.2416C509.219 77.9279 509.761 77.6135 510.316 77.2984C510.593 77.1123 510.812 76.9291 510.974 76.749C511.137 76.5688 511.326 76.3587 511.542 76.1185C511.813 75.8182 512.197 75.4977 512.694 75.157C513.191 74.8163 513.662 74.5199 514.106 74.2678C514.904 74.1975 515.324 74.3043 515.368 74.5881L515.539 75.3946C514.824 75.947 514.152 76.5114 513.524 77.0878C512.896 77.6643 512.255 78.2557 511.6 78.8622C511.435 78.9853 511.283 79.0933 511.145 79.1864C511.006 79.2794 510.798 79.3905 510.518 79.5195C510.299 79.7027 510.15 79.8678 510.072 80.015C509.994 80.1621 509.817 80.3287 509.54 80.5148C509.376 80.6664 509.213 80.8181 509.049 80.9697C508.884 81.0928 508.719 81.2301 508.556 81.3817C508.227 81.6564 507.927 81.9439 507.656 82.2441C507.272 82.5503 506.916 82.8551 506.588 83.1583C506.261 83.4615 505.962 83.7633 505.691 84.0635C505.394 84.3938 505.154 84.7211 504.97 85.0454C504.814 85.3397 504.545 85.6684 504.163 86.0317C503.884 86.1608 503.649 86.3161 503.458 86.4977L502.843 87.0449C502.747 87.3933 502.677 87.6973 502.633 87.9571C502.617 88.1869 502.459 88.4669 502.162 88.7972C501.726 89.2205 501.469 89.5058 501.391 89.6529C501.313 89.8 501.193 89.9637 501.031 90.1438C500.921 90.2354 500.726 90.3457 500.447 90.4747C500.334 90.5092 500.223 90.558 500.111 90.621C500 90.6841 499.889 90.7471 499.778 90.8101C499.529 90.9662 499.282 91.1794 499.039 91.4496C498.931 91.5697 498.808 91.6905 498.672 91.8121C498.563 91.9322 498.441 92.0531 498.304 92.1747C498.083 92.3293 497.876 92.4688 497.682 92.5934C497.489 92.718 497.323 92.8411 497.187 92.9627C496.967 93.1458 496.562 93.3243 495.97 93.4983C495.392 93.9291 494.973 94.1369 494.715 94.1218C494.542 94.1022 494.258 94.1314 493.861 94.2094C493.722 94.2739 493.59 94.2235 493.467 94.0583C493.344 93.893 493.183 93.8156 492.983 93.8261C492.594 93.503 492.301 93.3753 492.104 93.4428C491.879 93.5118 491.678 93.4937 491.501 93.3885C490.896 92.762 490.585 92.2919 490.569 91.978C490.56 91.8068 490.537 91.6363 490.499 91.4666C490.489 91.2669 490.464 91.0679 490.425 90.8696C490.266 90.0196 490.107 89.1553 489.946 88.2767C489.786 87.3981 489.652 86.4752 489.544 85.508C489.523 85.1086 489.547 84.7354 489.614 84.3885C489.706 83.9545 489.758 83.5799 489.77 83.2645C489.763 83.1218 489.723 82.9093 489.651 82.627C489.579 82.3446 489.541 82.1606 489.536 82.075C489.568 81.587 489.631 81.1545 489.726 80.7776C489.822 80.4292 489.83 80.0283 489.749 79.5747C489.4 80.0221 489.092 80.4102 488.823 80.7389C488.552 81.0392 488.322 81.2944 488.133 81.5046C487.944 81.7148 487.755 81.9249 487.565 82.1351C487.404 82.3438 487.244 82.5667 487.085 82.8039C486.227 83.3638 485.512 83.9019 484.938 84.4183C484.337 84.9647 483.588 85.4187 482.691 85.7803C482.313 86.2006 481.933 86.6067 481.553 86.9985C481.2 87.3603 480.846 87.7078 480.492 88.041C480.137 88.3743 479.77 88.7368 479.39 89.1287C479.037 89.4904 478.671 89.8815 478.293 90.3018C477.415 91.578 476.436 92.5448 475.354 93.2021C474.96 93.3371 474.65 93.4249 474.424 93.4653C474.197 93.5058 473.965 93.4464 473.728 93.2871C472.493 92.6649 471.734 91.8176 471.449 90.7453C471.164 89.6729 471.13 88.473 471.347 87.1455C471.061 86.6168 471.05 85.8449 471.311 84.8298C471.6 83.7847 471.618 83.0398 471.366 82.5952C471.43 82.1627 471.507 81.7295 471.599 81.2955C471.689 80.833 471.794 80.3698 471.913 79.9058C472.031 79.4418 472.122 78.9935 472.186 78.5611C472.276 78.0986 472.338 77.6518 472.373 77.2208C472.638 76.8064 472.664 76.4903 472.452 76.2725C472.241 76.0547 472.045 75.8646 471.865 75.7023C470.924 76.3237 470.032 77.0427 469.188 77.8594C468.343 78.676 467.486 79.5076 466.614 80.3543C466.396 80.5659 466.178 80.7776 465.961 80.9893C465.77 81.1709 465.566 81.3676 465.348 81.5792C465.158 81.7894 464.955 82.0003 464.737 82.212C464.518 82.3951 464.299 82.5925 464.081 82.8042L462.772 84.0314C462.308 84.4562 461.93 84.8908 461.638 85.3352C461.294 85.8682 461.013 86.2263 460.793 86.4094L460.259 86.8665C460.01 87.0226 459.791 87.2057 459.601 87.4159C459.493 87.536 459.329 87.6876 459.11 87.8707C458.946 88.0223 458.725 88.1626 458.445 88.2917L457.691 88.6315C457.36 88.8777 457.019 89.196 456.668 89.5863C456.316 89.9766 456.005 90.3219 455.735 90.6221C455.518 90.8623 455.273 91.104 455 91.3472C454.699 91.6204 454.483 91.8606 454.351 92.0678C454.034 92.5708 453.647 93.106 453.19 93.6735C453.002 93.9122 452.801 94.1659 452.586 94.4346C452.398 94.6733 452.211 94.9263 452.025 95.1936C452.01 95.4518 451.867 95.7311 451.597 96.0314L450.826 96.8871C450.718 97.0072 450.61 97.1415 450.504 97.2902C450.395 97.4103 450.274 97.5454 450.139 97.6955C449.924 97.9642 449.663 98.1781 449.357 98.3372L448.764 98.4969C448.453 98.5704 448.229 98.6536 448.091 98.7467C447.922 98.8127 447.754 98.8787 447.586 98.9447C447.391 99.0408 447.195 99.1368 447 99.2329C446.638 99.4234 446.213 99.5029 445.725 99.4711L444.691 99.3964C444.433 99.3813 444.141 99.2678 443.815 99.0559C443.791 98.5994 443.632 98.293 443.338 98.1367C443.44 97.3588 443.59 96.6643 443.787 96.0532C443.982 95.4135 444.133 94.7475 444.24 94.0553C444.637 93.4337 444.932 92.7745 445.124 92.0778C445.317 91.381 445.58 90.6663 445.913 89.9336C446.133 89.2068 446.394 88.4493 446.696 87.661L447.487 85.5596C447.584 85.2112 447.666 84.8778 447.736 84.5595C447.833 84.2397 447.917 83.9348 447.988 83.645C448.128 83.0369 448.329 82.5113 448.592 82.0684C448.932 81.4498 449.109 81.0114 449.125 80.7531C449.714 79.9784 449.987 79.1916 449.945 78.3926C450.241 78.0338 450.444 77.5368 450.554 76.9016C450.666 76.295 450.809 75.7439 450.983 75.2484C451.085 75.0141 451.174 74.8092 451.251 74.6335C451.328 74.4578 451.387 74.2258 451.429 73.9375C451.467 73.5636 451.467 73.2918 451.43 73.122C451.389 72.8953 451.446 72.6205 451.601 72.2976C451.708 72.149 451.815 72.0147 451.923 71.8946C452.032 71.7745 452.14 71.6544 452.248 71.5343C452.356 71.4142 452.464 71.2941 452.573 71.174C452.681 71.0539 452.788 70.9195 452.895 70.7709C453.15 70.7289 453.342 70.5758 453.472 70.3115C453.602 70.0758 453.765 69.8957 453.958 69.7711C454.576 69.5386 454.925 69.3773 455.006 69.2872C455.114 69.1671 455.183 69.1063 455.211 69.1048L456.462 68.3957C456.544 68.3342 456.628 68.2869 456.712 68.2539C456.823 68.1908 456.934 68.1278 457.045 68.0648C457.156 68.0017 457.254 67.9537 457.338 67.9207C457.422 67.8877 457.492 67.8555 457.548 67.8239C457.603 67.7924 457.673 67.7602 457.757 67.7272C457.841 67.6942 457.939 67.6461 458.05 67.5831C458.185 67.433 458.405 67.2498 458.708 67.0337C459.011 66.8176 459.231 66.6344 459.366 66.4843C459.949 66.6828 460.452 67.0141 460.877 67.4783C461.302 67.9425 461.45 68.5786 461.32 69.3865C461.278 69.6748 461.207 69.9503 461.106 70.2131C461.005 70.4759 460.904 70.7244 460.801 70.9586C460.726 71.1628 460.669 71.4376 460.63 71.783C460.591 72.1284 460.532 72.3746 460.454 72.5218C460.092 73.256 459.863 73.7973 459.766 74.1457C459.646 74.5811 459.522 74.9453 459.394 75.2381C459.185 75.6209 459.005 76.0023 458.853 76.3822C458.706 76.8477 458.568 77.2268 458.44 77.5196C458.313 77.8124 458.114 78.1089 457.843 78.4092C457.63 78.7064 457.469 78.9151 457.361 79.0352C457.172 79.2454 457.012 79.4826 456.883 79.7469C456.697 80.0141 456.511 80.2956 456.326 80.5914C456.142 80.8872 455.957 81.1972 455.774 81.5215C455.434 82.1401 455.036 82.7331 454.579 83.3006L453.77 85.0596C453.513 85.6167 453.245 86.2316 452.965 86.9042Z" fill="#615CFF"/>
<path d="M437.138 74.77L437.089 75.4593C437.156 75.6561 437.117 76.0015 436.971 76.4955C436.704 76.8528 436.552 77.2327 436.516 77.6351C436.413 77.8694 436.324 78.0743 436.247 78.25C436.171 78.4257 436.111 78.6577 436.069 78.946C435.973 79.2944 435.951 79.6961 436.003 80.1511C436.044 80.3779 436.056 80.6062 436.039 80.8359C436.049 81.0357 436.046 81.2362 436.028 81.4374C435.946 82.0711 435.893 82.689 435.867 83.2912C435.841 83.8934 435.816 84.5099 435.792 85.1406C435.825 85.7684 435.805 86.4847 435.732 87.2896C435.66 88.0945 435.583 88.8138 435.502 89.4475C435.783 89.8907 435.948 90.3112 435.997 90.7092C436.048 91.1357 436.267 91.4962 436.654 91.7907C437.787 91.5599 438.686 91.2411 439.351 90.8344C440.017 90.4277 440.645 89.8655 441.237 89.1479C441.683 88.9243 442.03 88.7059 442.276 88.4928C442.494 88.2811 442.81 88.0357 443.225 87.7565L443.874 87.0359C444.539 86.6292 444.912 86.3808 444.993 86.2907C445.047 86.2307 445.116 86.1699 445.198 86.1083C445.31 86.0453 445.421 85.9823 445.532 85.9193C446.469 85.2408 447.177 84.5458 447.655 83.8341C448.065 83.4694 448.403 83.094 448.669 82.7082C448.881 82.3824 449.307 82.0597 449.949 81.7401C450.296 81.2641 450.689 80.8573 451.13 80.5196C451.57 80.1818 451.963 79.775 452.31 79.2991C452.624 79.2827 452.855 79.3278 453.004 79.4345C453.093 79.4871 453.181 79.5397 453.27 79.5923C453.387 79.6434 453.504 79.6945 453.621 79.7456C453.816 80.1932 453.869 80.6625 453.781 81.1536C453.692 81.6446 453.515 82.0973 453.251 82.5117C452.985 82.8976 452.854 83.1333 452.859 83.2189C452.862 83.276 452.836 83.3345 452.782 83.3946C452.621 83.6032 452.418 83.8284 452.173 84.0701C451.927 84.2833 451.724 84.5085 451.565 84.7457C451.306 85.2742 451.092 85.5429 450.92 85.5519C450.749 85.5608 450.609 85.6253 450.501 85.7454C450.004 86.0861 449.659 86.3331 449.467 86.4862C449.249 86.6978 448.933 86.9432 448.518 87.2224C447.936 87.5676 447.577 87.8152 447.441 87.9654C447.306 88.1155 447.197 88.2071 447.112 88.2401C446.468 89.0463 445.831 89.7233 445.201 90.2712C444.626 90.7591 444.018 91.4346 443.376 92.2979C443.157 92.481 442.937 92.6641 442.718 92.8473C442.499 93.0304 442.311 93.2691 442.155 93.5634C441.659 93.9326 441.263 94.2967 440.967 94.6555C440.671 95.0143 440.335 95.4324 439.96 95.9098C439.626 96.0989 439.268 96.3608 438.885 96.6955C438.419 97.0918 438.005 97.3853 437.643 97.5759C437.505 97.6689 437.269 97.81 436.936 97.9991C436.658 98.1567 436.391 98.2422 436.134 98.2556C435.483 98.404 434.853 98.3797 434.242 98.1828C433.689 98.0114 433.138 97.8685 432.588 97.7541C432.342 97.4237 432.042 97.1532 431.688 96.9428C431.141 96.3419 430.731 95.6194 430.458 94.7753C430.185 93.9313 429.909 93.0301 429.631 92.0719C429.135 92.4411 428.726 92.8344 428.405 93.2518C428.085 93.6977 427.59 94.0955 426.922 94.4451C426.38 95.0171 425.823 95.5898 425.252 96.1632C424.68 96.7082 424.078 97.2403 423.447 97.7597C422.845 98.2775 422.23 98.8247 421.602 99.4011C420.972 99.949 420.343 100.511 419.716 101.088C419.283 101.568 418.978 101.756 418.801 101.65C418.32 102.305 417.417 102.552 416.093 102.393C415.624 102.188 415.1 102.015 414.521 101.874C414.115 101.781 413.65 101.633 413.124 101.432C412.145 101.311 411.309 100.926 410.617 100.275C409.925 99.6249 409.327 98.8551 408.823 97.9658C408.626 97.4897 408.476 97.0684 408.371 96.7019C408.332 96.5037 408.278 96.2919 408.209 96.0666C408.14 95.8413 408.07 95.6018 408 95.348C407.946 94.8644 407.84 94.4836 407.682 94.2057C407.552 93.8978 407.536 93.5982 407.635 93.3069C407.514 93.1702 407.476 92.9863 407.521 92.755C407.563 92.4667 407.58 92.2512 407.573 92.1085C407.474 91.3125 407.501 90.4528 407.653 89.5293C407.805 88.6058 408.032 87.7641 408.336 87.0043C408.492 86.7101 408.706 86.4128 408.976 86.1125C409.11 85.9339 409.187 85.7582 409.206 85.5855C409.227 85.4414 409.305 85.2942 409.441 85.1441C409.574 84.9654 409.737 84.7853 409.927 84.6036C410.201 84.3605 410.392 84.1788 410.5 84.0587C410.632 83.8515 410.765 83.6586 410.899 83.4799C411.059 83.2713 411.236 83.0904 411.428 82.9373C411.621 82.7842 411.798 82.6175 411.96 82.4374C412.122 82.2572 412.285 82.0771 412.447 81.8969C412.636 81.6868 412.783 81.4788 412.886 81.2731C413.017 81.0374 413.222 80.855 413.501 80.726C413.709 80.3146 413.949 79.973 414.22 79.7013C414.492 79.4296 414.792 79.1421 415.12 78.8389C416.029 77.6183 417.175 76.557 418.558 75.655C419.97 74.7515 421.207 73.7713 422.267 72.7145C422.658 72.5224 422.99 72.3048 423.263 72.0616C423.537 71.8184 423.81 71.5752 424.083 71.332C424.764 70.667 425.524 70.427 426.363 70.6121L428.62 71.095C429.218 71.5788 429.801 72.0633 430.37 72.5486C430.939 73.0339 431.44 73.58 431.872 74.1868C432.07 74.1479 432.283 74.1224 432.512 74.1105C432.738 74.07 432.981 74.0574 433.239 74.0725C433.756 74.1027 434.296 74.0316 434.859 73.8591C435.03 73.8502 435.199 73.7984 435.366 73.7039C435.533 73.6093 435.673 73.5591 435.787 73.5531C436.658 73.7937 437.109 74.1993 437.138 74.77ZM425.906 76.6444C424.404 77.4668 423.051 78.4102 421.848 79.4744C420.645 80.5387 419.502 81.6714 418.42 82.8724C418.285 83.0225 418.136 83.1734 417.972 83.325C417.835 83.4466 417.699 83.5824 417.564 83.7325C417.427 83.8541 417.291 83.99 417.156 84.1401C417.021 84.2902 416.9 84.4396 416.793 84.5882C416.58 84.8855 416.384 85.2391 416.205 85.649C416.026 86.0589 415.86 86.4395 415.707 86.7909C415.656 86.908 415.605 87.0251 415.553 87.1423C415.501 87.2308 415.448 87.3051 415.393 87.3652C415.339 87.4252 415.286 87.4996 415.233 87.5881C415.181 87.6767 415.128 87.7653 415.076 87.8539C414.976 88.1452 414.948 88.4328 414.992 88.7166C415.031 88.9149 415.062 89.228 415.084 89.656L415.129 90.512C415.138 90.6832 415.181 90.9671 415.259 91.3636C415.463 91.9824 415.581 92.6056 415.614 93.2334C415.638 93.6899 415.71 94.2441 415.83 94.8959C415.95 95.5477 416.187 95.9788 416.541 96.1892C416.924 96.3981 417.284 96.4365 417.62 96.3045C418.012 96.1409 418.336 96.0382 418.591 95.9962C420.508 94.3511 422.307 92.6405 423.988 90.8646C425.669 89.0886 427.139 87.1091 428.399 84.9261C428.212 83.5339 428.122 82.0936 428.13 80.6054C428.143 79.2028 427.946 77.9112 427.541 76.7307C427.306 76.5999 427.032 76.5713 426.721 76.6447C426.495 76.6852 426.223 76.6851 425.906 76.6444Z" fill="#615CFF"/>
<path d="M389.01 81.8339C389.478 81.4662 389.958 81.0691 390.45 80.6428C390.668 80.4312 390.9 80.2188 391.147 80.0056C391.393 79.7925 391.639 79.5793 391.886 79.3661C392.46 78.8498 393.034 78.3334 393.607 77.817C394.21 77.2991 394.813 76.7955 395.417 76.3062C396.019 75.7883 396.608 75.2854 397.183 74.7976C397.786 74.2797 398.374 73.7626 398.948 73.2462C399.161 72.9489 399.406 72.7072 399.682 72.5211C400.265 72.1759 400.582 71.9448 400.633 71.8277C400.684 71.7106 400.752 71.6355 400.836 71.6025C401.03 71.4779 401.3 71.4495 401.647 71.5172C401.966 71.5864 402.264 71.5565 402.544 71.4274C403.277 71.2175 404.047 71.1772 404.855 71.3067C405.663 71.4361 406.184 71.552 406.418 71.6542C406.558 71.5897 406.684 71.5401 406.797 71.5056C406.938 71.4697 407.065 71.4344 407.177 71.3999L407.856 71.2357C408.312 71.2119 408.645 71.2803 408.853 71.4411C409.062 71.6019 409.256 71.7634 409.437 71.9256C409.449 72.1539 409.473 72.3386 409.508 72.4798C409.576 72.6766 409.544 72.8928 409.414 73.1285C408.87 73.672 408.297 74.2026 407.694 74.7205C407.092 75.2384 406.4 75.6894 405.619 76.0735C404.76 76.6048 404.195 77.0206 403.925 77.3208C403.654 77.6211 403.28 77.8552 402.803 78.0232C402.021 78.4074 401.288 78.8892 400.603 79.4686C400 79.9579 399.296 80.4668 398.494 80.9951C398.056 81.3613 397.602 81.7141 397.133 82.0533C396.665 82.3925 396.196 82.7317 395.727 83.0709C394.733 83.7524 393.812 84.4728 392.965 85.2324C392.661 85.4485 392.428 85.6467 392.266 85.8268C392.185 85.9169 392.035 86.0535 391.816 86.2366C391.895 86.6617 391.999 87.0139 392.128 87.2932C392.256 87.5441 392.333 87.9263 392.36 88.4399C392.451 88.5496 392.562 88.7441 392.691 89.0235C392.754 89.1346 392.803 89.2465 392.837 89.3592C392.9 89.4703 392.963 89.5815 393.026 89.6926C393.182 89.942 393.324 90.1921 393.452 90.4429C393.579 90.6938 393.706 90.9304 393.832 91.1527C393.958 91.375 394.085 91.6115 394.212 91.8624C394.369 92.1117 394.539 92.3603 394.724 92.6082L395.419 93.6019C395.665 93.9324 395.95 94.175 396.273 94.3298C396.43 94.6077 396.57 94.815 396.691 94.9517C396.84 95.0584 396.98 95.2657 397.11 95.5736C397.514 96.1819 398.151 96.3203 399.02 95.9888C399.888 95.6287 400.669 95.2445 401.363 94.8363C401.931 94.7494 402.365 94.5694 402.666 94.2962C402.966 94.023 403.28 93.7348 403.608 93.4315C403.744 93.31 403.882 93.2026 404.02 93.1096C404.185 92.9865 404.337 92.8784 404.475 92.7854C404.807 92.5677 405.095 92.3238 405.338 92.0536C405.888 91.6243 406.439 91.2093 406.99 90.8085C407.541 90.4078 408.123 90.0483 408.736 89.7302C409.055 89.2557 409.366 88.9105 409.669 88.6943C410.055 88.4166 410.398 88.1269 410.697 87.8252C411.192 87.456 411.575 87.1212 411.846 86.821C412.116 86.5207 412.472 86.216 412.914 85.9068C413.184 85.6066 413.456 85.3348 413.73 85.0917C414.003 84.8485 414.221 84.6368 414.383 84.4567C414.774 84.2646 415.121 84.0605 415.424 83.8443C415.727 83.6282 415.983 83.3144 416.19 82.903C416.476 82.8881 416.713 82.7756 416.902 82.5654C417.119 82.3252 417.354 82.1841 417.61 82.1422C417.751 82.6498 417.772 83.0636 417.675 83.3834C417.577 83.7033 417.448 83.9818 417.289 84.219C416.965 84.5793 416.639 84.9111 416.311 85.2143C415.984 85.5175 415.598 85.7952 415.153 86.0473C415.072 86.1374 414.949 86.244 414.783 86.3671C414.618 86.4901 414.495 86.5967 414.414 86.6868C414.333 86.7769 414.209 86.8834 414.044 87.0065C413.879 87.1296 413.756 87.2362 413.675 87.3262C413.391 87.9133 413.166 88.2684 413.001 88.3915C412.807 88.5161 412.63 88.697 412.471 88.9342C412.166 89.1218 411.879 89.3657 411.608 89.6659C411.365 89.9362 411.05 90.2101 410.664 90.4878C409.525 91.6918 408.548 92.7013 407.732 93.5165C406.916 94.3316 406.043 95.1355 405.111 95.928C404.309 96.4563 403.533 96.9404 402.784 97.3801C402.395 97.6007 401.993 97.8506 401.578 98.1298C401.191 98.3789 400.79 98.6431 400.375 98.9222C400.264 98.9853 400.154 99.0626 400.044 99.1541C399.933 99.2172 399.822 99.2944 399.713 99.386C399.495 99.5977 399.301 99.7223 399.131 99.7597C398.852 99.8888 398.555 99.9472 398.239 99.9351C397.951 99.8929 397.658 100.037 397.361 100.367C396.829 100.595 396.243 100.883 395.603 101.232C395.019 101.548 394.454 101.692 393.909 101.663C393.708 101.645 393.46 101.558 393.166 101.402C392.96 101.298 392.715 101.268 392.432 101.311C392.239 100.921 391.852 100.626 391.27 100.428C390.687 100.23 390.465 99.812 390.603 99.1753C390.267 98.7637 389.928 98.295 389.586 97.7693C389.429 97.5199 389.274 97.2848 389.12 97.064C388.963 96.8147 388.808 96.5796 388.654 96.3588C388.672 95.6139 388.541 95.0199 388.26 94.5768C387.979 94.1337 387.684 93.6913 387.375 93.2496C387.309 93.0814 387.243 92.9132 387.177 92.745C387.111 92.5768 387.045 92.4085 386.979 92.2403C386.849 91.9324 386.707 91.6823 386.554 91.49C386.368 91.2136 386.254 90.962 386.214 90.7353C385.604 91.1105 385.162 91.4197 384.889 91.6628C384.616 91.906 384.234 92.2693 383.744 92.7527C383.607 92.8743 383.471 92.9959 383.334 93.1174C383.224 93.209 383.115 93.3006 383.005 93.3921C382.895 93.4837 382.772 93.5903 382.635 93.7119C382.526 93.8034 382.403 93.91 382.266 94.0316C381.629 94.4368 381.108 94.8646 380.702 95.315C380.486 95.5552 380.271 95.8239 380.058 96.1212C379.871 96.3885 379.653 96.6001 379.404 96.7562L378.532 97.3168C378.394 97.4098 378.242 97.5179 378.077 97.641C377.939 97.734 377.801 97.8414 377.665 97.9629C377.472 98.1161 377.241 98.3427 376.971 98.643C376.754 98.8832 376.494 99.1113 376.191 99.3275C376.026 99.4506 375.863 99.6307 375.704 99.8679C375.543 100.077 375.353 100.258 375.132 100.413C374.86 100.685 374.501 100.932 374.055 101.156C373.609 101.379 373.25 101.627 372.978 101.899C372.329 102.619 371.728 103.18 371.177 103.581C370.626 103.982 369.976 104.144 369.228 104.069C368.846 103.86 368.247 103.634 367.433 103.39C366.591 103.148 366.162 102.884 366.147 102.599C366.364 102.359 366.582 102.161 366.803 102.007C367.024 101.852 367.272 101.682 367.549 101.496C368.117 100.865 368.731 100.304 369.392 99.8115C369.694 99.5668 370.011 99.3356 370.343 99.118C370.674 98.8718 371.004 98.6257 371.335 98.3795C371.776 98.0703 372.115 97.7093 372.351 97.2964C372.614 96.8535 372.951 96.4639 373.363 96.1277C373.57 95.7163 373.812 95.4175 374.088 95.2314C374.251 95.0513 374.372 94.9019 374.451 94.7833C374.531 94.6646 374.652 94.5153 374.814 94.3351C375.424 93.9599 375.727 93.7438 375.724 93.6867C375.721 93.6296 375.747 93.5711 375.801 93.511C376.268 93.1433 376.593 92.783 376.775 92.4301C376.884 92.3386 377.077 92.1997 377.354 92.0136C377.603 91.8575 377.823 91.6887 378.014 91.507C378.287 91.2639 378.547 91.0357 378.794 90.8225C379.069 90.6079 379.316 90.409 379.535 90.2259L380.975 89.0348C381.272 88.7045 381.573 88.4313 381.876 88.2152C382.041 88.0921 382.192 87.9697 382.329 87.8482C382.494 87.7251 382.645 87.6027 382.782 87.4812C383.089 86.7785 383.152 86.346 382.972 86.1837C382.762 85.9944 382.64 85.8577 382.607 85.7736C382.535 85.4912 382.494 85.2502 382.483 85.0505C382.473 84.8507 382.432 84.6097 382.36 84.3273L382.036 83.0567C381.986 82.6587 381.851 82.2509 381.629 81.8334C381.468 81.4984 381.304 81.0921 381.136 80.6145C381.008 80.3637 380.89 80.0122 380.78 79.5601C380.674 79.1651 380.557 78.8422 380.429 78.5914C380.363 78.4232 380.297 78.2549 380.231 78.0867C380.192 77.8885 380.139 77.691 380.071 77.4942C379.933 77.0436 379.816 76.7064 379.718 76.4826C379.532 76.2063 379.406 75.9839 379.34 75.8157C379.274 75.6475 379.288 75.3607 379.381 74.9552C379.417 74.5528 379.432 74.2945 379.426 74.1803C379.414 73.9521 379.518 73.7464 379.737 73.5632C380.206 73.224 380.481 73.0094 380.562 72.9193L380.887 72.559C381.25 72.397 381.722 72.1291 382.304 71.7554C382.857 71.3831 383.3 71.1167 383.635 70.9562C384.407 70.4008 384.987 70.2704 385.375 70.5649C385.762 70.8594 386.025 71.2319 386.163 71.6825C385.913 72.3822 385.807 72.8169 385.844 72.9866C385.879 73.0993 385.902 73.2697 385.914 73.498C385.825 73.9891 385.794 74.4914 385.821 75.005C385.842 75.4045 386.032 75.7522 386.391 76.0482C386.288 76.2824 386.285 76.4829 386.379 76.6496C386.474 76.8164 386.581 76.9538 386.701 77.062C386.921 77.9947 387.252 78.8358 387.691 79.5853C387.91 79.9458 388.13 80.3206 388.351 80.7096C388.57 81.0701 388.79 81.4449 389.01 81.8339Z" fill="#615CFF"/>
<path d="M348.453 84.2963C348.814 84.0772 349.248 83.6254 349.756 82.9408C350.262 82.2276 350.756 81.5438 351.236 80.8892C351.716 80.2061 352.082 79.815 352.334 79.716C352.49 79.4217 352.635 79.171 352.767 78.9638C352.899 78.7566 353.103 78.5599 353.38 78.3738C353.793 77.5225 354.356 76.7921 355.068 76.1826C355.807 75.5432 356.487 74.8639 357.107 74.1448C357.637 73.8882 358.166 73.6031 358.693 73.2894C359.249 72.9742 359.788 72.617 360.311 72.2178C361.385 71.4177 362.606 70.9677 363.974 70.8676C364.617 71.1201 365.235 71.1737 365.828 71.0282C366.393 70.8843 366.957 70.9979 367.52 71.369C367.862 71.8948 368.136 72.2095 368.342 72.3132C368.547 72.4169 368.727 72.5649 368.88 72.7572C369.145 73.4586 369.341 73.9204 369.467 74.1428C369.622 74.3636 369.72 74.6016 369.762 74.8569C369.813 75.2835 369.861 75.6529 369.906 75.9653C369.949 76.2491 369.991 76.4902 370.03 76.6884C370.077 77.0579 370.096 77.4146 370.085 77.7585C369.99 79.2226 369.781 80.6928 369.458 82.1689C369.409 82.3431 369.361 82.5172 369.313 82.6914C369.265 82.8656 369.218 83.0541 369.171 83.2568C369.076 83.6337 368.951 83.9693 368.794 84.2636C368.395 84.8281 368.118 85.286 367.965 85.6374C367.732 86.1073 367.562 86.4166 367.456 86.5652C367.131 86.9255 366.819 87.2566 366.52 87.5583C366.25 87.8585 365.992 88.1295 365.747 88.3712C365.498 88.5273 365.249 88.6976 365.002 88.8823C364.752 89.0384 364.504 89.2087 364.256 89.3933C363.787 89.7325 363.228 89.9906 362.579 90.1676L361.834 90.6787C361.586 90.8633 361.306 90.9781 360.993 91.023C360.499 91.4208 359.944 91.7502 359.328 92.0113C359.049 92.1403 358.755 92.2701 358.447 92.4006C358.168 92.5297 357.875 92.6737 357.569 92.8328C357.15 93.0264 356.789 93.2455 356.487 93.4902C356.185 93.7348 355.798 93.984 355.324 94.2376C355.072 94.3366 354.664 94.4581 354.099 94.602C353.561 94.716 353.181 94.836 352.959 94.962C353.274 95.5178 353.425 96.2252 353.413 97.0842C353.426 97.8846 353.606 98.5905 353.953 99.2019C354.704 99.3343 355.524 99.4202 356.413 99.4596C357.302 99.499 358.143 99.4407 358.936 99.2848C359.077 99.2489 359.217 99.1986 359.357 99.1341C359.525 99.0681 359.693 99.0021 359.862 98.936C360.03 98.87 360.198 98.804 360.366 98.738C360.535 98.672 360.704 98.6202 360.873 98.5828C361.495 98.4358 362.101 98.2611 362.691 98.0586C363.282 97.8561 363.798 97.6002 364.239 97.291C365.864 96.6339 367.422 95.78 368.912 94.7293C370.402 93.6787 371.688 92.5528 372.77 91.3519C373.431 90.8595 374.154 90.1923 374.94 89.3501C375.726 88.5079 376.329 87.7325 376.75 87.0238C377.558 86.066 378.277 85.3131 378.906 84.7653C379.536 84.2174 380.137 83.957 380.711 83.9843C381.168 83.9604 381.624 84.2084 382.08 84.7282C382.537 85.248 382.524 85.8351 382.044 86.4897C381.519 86.8605 380.947 87.4054 380.326 88.1245C379.734 88.8421 379.104 89.3614 378.434 89.6826C377.965 90.0218 377.356 90.6831 376.606 91.6664C375.882 92.5912 375.276 93.3096 374.787 93.8215C374.679 93.9416 374.557 94.0767 374.422 94.2269C374.287 94.377 374.123 94.5286 373.931 94.6817C373.575 94.9864 373.291 95.3017 373.079 95.6275C372.233 96.4156 371.41 97.088 370.609 97.6449C370.29 97.5471 370.036 97.6176 369.848 97.8563C369.608 98.1836 369.391 98.4238 369.199 98.5769C369.116 98.6385 369.034 98.7 368.951 98.7616C368.868 98.8231 368.772 98.8854 368.66 98.9484C368.549 99.0114 368.452 99.0737 368.37 99.1353C368.287 99.1968 368.205 99.2584 368.122 99.3199C367.686 99.7432 367.208 100.169 366.687 100.597C366.165 101.024 365.627 101.396 365.071 101.711C364.518 102.083 363.964 102.427 363.408 102.742C362.854 103.086 362.297 103.387 361.739 103.645C361.18 103.903 360.623 104.204 360.069 104.547C359.543 104.89 359.019 105.26 358.496 105.66L357.561 105.837C357.42 105.873 357.278 105.895 357.136 105.902C356.994 105.938 356.853 105.974 356.712 106.01C356.404 106.141 356.108 106.214 355.822 106.229C355.537 106.243 355.177 106.205 354.743 106.113C352.833 105.698 351.245 104.865 349.978 103.615C349.797 103.453 349.604 103.306 349.397 103.174C349.216 103.011 349.023 102.864 348.816 102.732C348.341 102.413 348.011 102.116 347.825 101.84C347.546 101.425 347.254 100.768 346.949 99.8682C346.616 98.97 346.325 98.0554 346.076 97.1242C345.826 96.1645 345.687 95.4278 345.66 94.9142C345.814 94.5628 345.969 93.9682 346.125 93.1303C346.28 92.2638 346.407 91.4131 346.507 90.5782C346.605 89.7147 346.645 89.1118 346.627 88.7694C346.735 88.6493 346.944 88.2664 347.254 87.6208C347.533 86.9481 347.798 86.2762 348.049 85.605C348.328 84.9038 348.462 84.4676 348.453 84.2963ZM361.949 78.0978C361.576 78.6322 361.202 79.1382 360.826 79.6156C360.451 80.093 360.017 80.5449 359.524 80.9712C359.214 81.6168 358.845 82.2084 358.415 82.7458C357.985 83.2833 357.554 83.7922 357.121 84.2726C356.917 84.7411 356.679 85.1112 356.407 85.3829C356.135 85.6546 355.835 85.9421 355.508 86.2453C355.17 86.8924 354.744 87.5155 354.232 88.1145C353.72 88.7135 353.64 89.3758 353.992 90.1012C354.626 90.1826 355.249 90.0642 355.862 89.746C356.475 89.4279 357.004 89.1428 357.448 88.8906C357.669 88.7361 357.891 88.5957 358.113 88.4697C358.364 88.3421 358.601 88.2153 358.823 88.0892C359.045 87.9632 359.267 87.8371 359.49 87.711C359.712 87.585 359.919 87.4454 360.112 87.2923L362.221 84.9504C362.547 84.6186 362.87 84.2298 363.19 83.7839C363.322 83.5767 363.455 83.3695 363.587 83.1623C363.746 82.9251 363.905 82.6879 364.065 82.4506C364.174 81.8154 364.372 81.2186 364.658 80.66C364.97 80.0715 365.082 79.4791 364.994 78.8828C364.952 78.6275 364.837 78.3331 364.647 77.9997C364.458 77.6662 364.344 77.4004 364.305 77.2021C363.706 77.2334 363.269 77.3564 362.994 77.571C362.858 77.6926 362.692 77.8014 362.496 77.8975C362.328 77.9635 362.146 78.0303 361.949 78.0978Z" fill="#615CFF"/>
</svg>
